<svg width="42" height="36" viewBox="0 0 42 36" fill="none" xmlns="http://www.w3.org/2000/svg">
<g clip-path="url(#clip0_119_4215)">
<path d="M28.3555 5.78093C28.3555 5.78093 32.2118 6.47291 32.2118 10.6248C32.2118 14.7767 28.3555 14.7767 28.3555 14.7767H19.9623V5.78093C19.9623 5.78093 19.9623 0.244316 13.8371 0.244316V14.7767H4.53684C4.53684 14.7767 0 14.7767 0 21.0053H13.8379V30.6946C13.8379 30.6946 13.6113 36 19.963 36V21.0061H30.3977C30.3977 21.0061 38.337 20.0837 38.337 11.0871C38.337 2.09063 30.8508 0.245089 30.3977 0.245089C29.9438 0.245089 23.3655 0.245089 23.3655 0.245089C23.3655 0.245089 23.3655 5.78093 28.3555 5.78093Z" fill="url(#paint0_linear_119_4215)"/>
</g>
<defs>
<linearGradient id="paint0_linear_119_4215" x1="0" y1="18.1225" x2="38.3371" y2="18.1225" gradientUnits="userSpaceOnUse">
<stop stop-color="#1B2C82"/>
<stop offset="1" stop-color="#26CFCE"/>
</linearGradient>
<clipPath id="clip0_119_4215">
<rect width="42" height="36" fill="white"/>
</clipPath>
</defs>
</svg>
